<svg id="Layer_1" data-name="Layer 1" xmlns="http://www.w3.org/2000/svg" viewBox="0 0 122.88 104.91"><title>gpu</title><path d="M32.05,18.59H90.83a12.71,12.71,0,0,1,9,3.76h0a12.76,12.76,0,0,1,3.76,9V73.52a12.78,12.78,0,0,1-3.77,9l0,0a12.77,12.77,0,0,1-9,3.76H32.05a12.76,12.76,0,0,1-9-3.77h0a12.76,12.76,0,0,1-3.76-9V31.39a12.75,12.75,0,0,1,3.76-9l0,0a12.78,12.78,0,0,1,9-3.75Zm9.59,44a4.89,4.89,0,0,1-4.85-3,11.22,11.22,0,0,1-.9-3.21,28.31,28.31,0,0,1-.25-3.9A25.47,25.47,0,0,1,36,48.33a8.69,8.69,0,0,1,1.13-3.23A5.29,5.29,0,0,1,39.43,43a9.25,9.25,0,0,1,4-.73,26.58,26.58,0,0,1,2.73.12,18.75,18.75,0,0,1,2.14.35c.66.15,1.35.33,2.07.53v4.06c-.4-.07-.9-.14-1.51-.19s-1.29-.1-2-.14S45.25,47,44.4,47a4.48,4.48,0,0,0-2.31.47,2.44,2.44,0,0,0-1,1.68,18.48,18.48,0,0,0-.24,3.39,21.85,21.85,0,0,0,.13,2.7,4.77,4.77,0,0,0,.44,1.6,1.67,1.67,0,0,0,.8.78,2.68,2.68,0,0,0,1.15.22,13.49,13.49,0,0,0,1.78-.1c.52-.06.91-.12,1.18-.17V55H43.57V50.83c.4-.06.87-.1,1.41-.14s1.11-.07,1.7-.09,1.11,0,1.6,0H50l1.36,0V62.47H47.42l-.7-1.32a10,10,0,0,1-2,.94,8.73,8.73,0,0,1-3.06.51Zm12.66-.13v-20h8.77a10.13,10.13,0,0,1,2.09.23,4.65,4.65,0,0,1,2,.94,4.8,4.8,0,0,1,1.45,2.15,10.9,10.9,0,0,1,.55,3.83,11.79,11.79,0,0,1-.53,3.89,5.19,5.19,0,0,1-1.4,2.2,4.55,4.55,0,0,1-1.87,1,8,8,0,0,1-2,.25,9.74,9.74,0,0,1-1.06,0c-.37,0-.73-.08-1.08-.15s-.67-.12-1-.19l-.74-.14v6ZM59.52,52.3h3a1.17,1.17,0,0,0,.85-.29,1.7,1.7,0,0,0,.43-.87,7.31,7.31,0,0,0,.12-1.44,5.5,5.5,0,0,0-.15-1.4,1.84,1.84,0,0,0-.44-.85,1.13,1.13,0,0,0-.81-.28h-3V52.3ZM79.15,62.6A18.12,18.12,0,0,1,76,62.34a7.15,7.15,0,0,1-2.59-1,4.76,4.76,0,0,1-1.76-2,7.82,7.82,0,0,1-.64-3.42V42.49h5.22V55.85A1.86,1.86,0,0,0,76.61,57a2,2,0,0,0,1,.69,5.41,5.41,0,0,0,3.12,0,2.05,2.05,0,0,0,1-.69A1.92,1.92,0,0,0,82,55.85V42.49h5.22V55.88a8,8,0,0,1-.63,3.42,4.83,4.83,0,0,1-1.76,2,7.31,7.31,0,0,1-2.58,1,18.07,18.07,0,0,1-3.12.26Zm2.41,29.71h6.83a1.28,1.28,0,0,1,1.27,1.28v10a1.28,1.28,0,0,1-1.27,1.28H81.56a1.28,1.28,0,0,1-1.28-1.28v-10a1.28,1.28,0,0,1,1.28-1.28Zm-15.69,0H72.7A1.29,1.29,0,0,1,74,93.59v10a1.29,1.29,0,0,1-1.28,1.28H65.87a1.28,1.28,0,0,1-1.28-1.28v-10a1.28,1.28,0,0,1,1.28-1.28Zm-15.69,0H57a1.28,1.28,0,0,1,1.28,1.28v10A1.28,1.28,0,0,1,57,104.91H50.18a1.29,1.29,0,0,1-1.28-1.28v-10a1.29,1.29,0,0,1,1.28-1.28Zm-15.69,0h6.84a1.28,1.28,0,0,1,1.27,1.28v10a1.28,1.28,0,0,1-1.27,1.28H34.49a1.28,1.28,0,0,1-1.27-1.28v-10a1.28,1.28,0,0,1,1.27-1.28ZM81.56,0h6.83a1.27,1.27,0,0,1,1.27,1.28v10a1.27,1.27,0,0,1-1.27,1.28H81.56a1.28,1.28,0,0,1-1.28-1.28v-10A1.28,1.28,0,0,1,81.56,0ZM65.87,0H72.7A1.28,1.28,0,0,1,74,1.28v10a1.28,1.28,0,0,1-1.28,1.28H65.87a1.28,1.28,0,0,1-1.28-1.28v-10A1.28,1.28,0,0,1,65.87,0ZM50.18,0H57a1.28,1.28,0,0,1,1.28,1.28v10A1.28,1.28,0,0,1,57,12.59H50.18a1.28,1.28,0,0,1-1.28-1.28v-10A1.28,1.28,0,0,1,50.18,0ZM34.49,0h6.84A1.27,1.27,0,0,1,42.6,1.28v10a1.27,1.27,0,0,1-1.27,1.28H34.49a1.27,1.27,0,0,1-1.27-1.28v-10A1.27,1.27,0,0,1,34.49,0Zm75.8,56.36v6.83a1.28,1.28,0,0,0,1.28,1.28h10a1.28,1.28,0,0,0,1.28-1.28V56.36a1.28,1.28,0,0,0-1.28-1.28h-10a1.28,1.28,0,0,0-1.28,1.28Zm0-15.69v6.84a1.27,1.27,0,0,0,1.28,1.27h10a1.27,1.27,0,0,0,1.28-1.27V40.67a1.27,1.27,0,0,0-1.28-1.27h-10a1.27,1.27,0,0,0-1.28,1.27Zm0,31.38v6.83a1.28,1.28,0,0,0,1.28,1.28h10a1.28,1.28,0,0,0,1.28-1.28V72.05a1.28,1.28,0,0,0-1.28-1.28h-10a1.28,1.28,0,0,0-1.28,1.28Zm0-47.06v6.83a1.28,1.28,0,0,0,1.28,1.28h10a1.28,1.28,0,0,0,1.28-1.28V25a1.28,1.28,0,0,0-1.28-1.28h-10A1.28,1.28,0,0,0,110.29,25ZM12.59,56.36v6.83a1.28,1.28,0,0,1-1.28,1.28h-10A1.28,1.28,0,0,1,0,63.19V56.36a1.28,1.28,0,0,1,1.28-1.28h10a1.28,1.28,0,0,1,1.28,1.28Zm0-15.69v6.84a1.27,1.27,0,0,1-1.28,1.27h-10A1.27,1.27,0,0,1,0,47.51V40.67A1.27,1.27,0,0,1,1.28,39.4h10a1.27,1.27,0,0,1,1.28,1.27Zm0,31.38v6.83a1.28,1.28,0,0,1-1.28,1.28h-10A1.28,1.28,0,0,1,0,78.88V72.05a1.28,1.28,0,0,1,1.28-1.28h10a1.28,1.28,0,0,1,1.28,1.28Zm0-47.06v6.83a1.28,1.28,0,0,1-1.28,1.28h-10A1.28,1.28,0,0,1,0,31.82V25a1.28,1.28,0,0,1,1.28-1.28h10A1.28,1.28,0,0,1,12.59,25Zm78.24,0H32.05a6.34,6.34,0,0,0-4.5,1.86h0a6.34,6.34,0,0,0-1.86,4.5V73.52a6.38,6.38,0,0,0,6.37,6.37H90.83A6.34,6.34,0,0,0,95.32,78h0a6.3,6.3,0,0,0,1.87-4.49V31.39a6.38,6.38,0,0,0-1.87-4.5h0A6.32,6.32,0,0,0,90.83,25Z"/></svg>